PathFileType	4	(X/Y/Z)	D:\TRACE\spotREDO_2-26-24\spot_Both_Motion_1_10-v60.trc
DataRate	CameraRate	NumFrames	NumMarkers	Units	OrigDataRate	OrigDataStartFrame	OrigNumFrames
100.00	100.00	      17	9	mm	100.00	3501	      7000
Frame#	Time	front left toe			Front right toe			aft left toe			aft right toe			Arm			FL body			FR body			AL Body			AR Body			
		X1	Y1	Z1	X2	Y2	Z2	X3	Y3	Z3	X4	Y4	Z4	X5	Y5	Z5	X6	Y6	Z6	X7	Y7	Z7	X8	Y8	Z8	X9	Y9	Z9	

3501	35.000	-262.06104	12.62723	-445.02975	213.91483	22.62955	-449.84305	-197.67841	9.64011	118.29099	160.07924	88.14954	108.65338	-82.88242	735.11420	-773.40564	-162.82648	600.19409	-466.16895	-7.18338	604.54358	-456.88831	-219.75806	544.98694	414.52640	-79.03801	549.32990	424.61682	
3502	35.010	-262.11093	12.09917	-445.04004	214.96117	22.90384	-450.14230	-197.16728	10.04082	118.19642	169.86958	77.69942	94.63754	-76.18215	730.36035	-775.44019	-164.43811	599.56970	-465.36371	-8.95965	603.74622	-456.64236	-218.51900	544.78253	415.44797	-77.73303	549.21765	425.09232	
3503	35.020	-262.08148	11.66294	-444.95612	215.70627	22.94386	-450.82932	-196.04265	10.11037	118.43874	179.14171	67.04546	81.46956	-68.99445	725.26508	-777.24225	-166.04767	598.83990	-464.68600	-10.47339	602.96820	-456.42279	-217.52061	544.82788	416.43176	-76.50725	548.96851	425.77481	
3504	35.030	-262.01608	11.17601	-444.82687	214.85194	22.05811	-450.81857	-195.32367	10.05159	118.60719	187.59261	57.29853	71.61656	-62.36182	720.14642	-779.23627	-167.34700	598.21515	-464.16791	-11.71914	602.19080	-456.29196	-216.71840	544.79230	417.03296	-75.57222	549.01392	426.18518	
3505	35.040	-261.82092	10.95272	-444.90826	215.39694	21.69233	-450.93500	-194.84898	10.01347	118.64466	194.96689	46.81001	67.73824	-55.89953	714.62714	-780.94250	-168.24554	597.36725	-463.60062	-12.48992	601.09235	-456.10254	-215.60553	544.76318	417.66415	-74.55013	548.75970	426.47137	
3506	35.050	-260.99521	10.47741	-444.91278	216.76352	22.48695	-450.69672	-194.62871	10.22431	118.67181	200.75821	36.90558	68.30205	-50.35955	709.44696	-782.55145	-168.67606	596.29877	-463.50461	-12.71834	599.79437	-456.17282	-215.03741	544.93652	418.00623	-74.07333	548.63159	426.62506	
3507	35.060	-260.57965	10.00765	-444.94809	217.11337	22.49502	-450.40961	-194.43727	10.29883	118.54292	202.34290	31.46943	68.58596	-45.32546	704.77698	-783.94617	-168.28232	594.70813	-463.31079	-12.53848	598.14667	-456.15991	-214.85811	545.44336	418.07831	-73.80802	548.97260	426.71594	
3508	35.070	-260.24155	9.38355	-444.70761	217.19502	20.69657	-450.85297	-193.39142	10.34799	118.31297	203.78091	32.06860	65.98921	-41.34480	700.25116	-785.22137	-166.62650	592.25146	-463.71719	-11.17683	596.01978	-455.91818	-215.94957	547.04950	417.88000	-74.26274	550.80310	427.00269	
3509	35.080	-259.16678	9.24716	-445.08359	217.78426	20.37486	-450.50284	-193.08952	10.38755	118.18681	205.64143	33.04358	67.57052	-38.53737	696.57599	-786.09448	-164.63712	589.70398	-464.11292	-9.06549	593.47919	-455.73901	-217.39316	549.18390	417.32800	-76.35667	553.28455	426.79260	
3510	35.090	-258.04263	9.93945	-445.51016	218.07117	20.17068	-450.36371	-193.98663	10.33211	118.07753	206.19690	33.92317	68.42312	-37.20310	693.32056	-786.55530	-161.91328	587.87354	-464.74966	-6.44780	591.54456	-455.47882	-218.82379	550.71655	416.80505	-78.62714	555.75671	427.24677	
3511	35.100	-256.74304	10.07173	-445.83078	218.01645	23.81295	-448.66721	-194.07916	9.87503	117.52481	205.39799	33.23497	68.21544	-37.13216	690.42114	-787.11792	-159.14786	586.04773	-465.59384	-3.86371	588.99829	-455.24771	-220.19696	552.19098	415.96777	-79.94788	556.64673	427.01852	
3512	35.110	-256.60327	10.09484	-445.98380	218.70871	33.65836	-444.78616	-194.05403	9.80685	117.16404	205.48907	32.95480	68.46291	-38.20489	688.73407	-787.93256	-156.16333	583.93854	-466.31787	-0.91041	586.40118	-455.91409	-221.48981	553.66956	414.97229	-80.55611	557.04333	426.28662	
3513	35.120	-256.02753	9.91676	-446.32379	217.42307	43.57021	-442.35156	-193.88768	9.83142	116.88235	205.43289	32.94936	68.76382	-40.14037	687.61194	-788.37958	-153.33125	581.61230	-467.39182	2.14079	583.78369	-456.25974	-222.30011	555.15179	413.79031	-81.04168	558.31396	425.87234	
3514	35.130	-255.38988	10.04864	-446.53506	219.30092	55.97049	-442.53940	-193.73270	9.75183	116.90842	205.65575	33.03777	68.74474	-42.11200	687.27777	-788.78052	-150.58636	579.40454	-468.14343	4.87283	581.10638	-456.16870	-222.45247	556.24402	412.64240	-82.00226	559.73895	425.26801	
3515	35.140	-254.59560	10.17781	-446.70425	220.88812	69.13523	-446.63284	-193.66557	9.58866	116.76707	205.81989	32.70073	68.42223	-44.31144	687.93774	-789.27692	-147.91898	577.56128	-469.16638	7.11353	579.35107	-457.21927	-222.24356	557.27234	411.55917	-81.74825	560.68762	424.68958	
3516	35.150	-253.67371	10.16018	-446.85287	222.10324	82.60316	-451.83414	-193.48586	9.63496	116.66289	206.47104	32.70494	68.28165	-46.28573	689.10553	-789.02136	-146.01729	575.84613	-470.11172	9.66349	577.67126	-457.79431	-221.25401	557.76691	410.68680	-80.85529	561.22168	423.96106	
3517	35.160	-253.41261	10.03733	-446.85382	220.77606	95.63172	-455.56888	-193.39276	9.80376	116.57671	207.94833	33.26026	67.91468	-47.88789	690.76923	-788.91693	-144.47375	574.09869	-470.78323	10.94516	576.39709	-458.84116	-219.46658	557.97351	409.94595	-79.22414	561.78784	423.07486	
